<mxfile host="Electron" agent="Mozilla/5.0 (Windows NT 10.0; Win64; x64) AppleWebKit/537.36 (KHTML, like Gecko) draw.io/24.7.17 Chrome/128.0.6613.36 Electron/32.0.1 Safari/537.36" version="24.7.17">
  <diagram id="C5RBs43oDa-KdzZeNtuy" name="Page-1">
    <mxGraphModel dx="3908" dy="718" grid="1" gridSize="10" guides="1" tooltips="1" connect="1" arrows="1" fold="1" page="1" pageScale="1" pageWidth="827" pageHeight="1169" math="0" shadow="0">
      <root>
        <mxCell id="WIyWlLk6GJQsqaUBKTNV-0" />
        <mxCell id="WIyWlLk6GJQsqaUBKTNV-1" parent="WIyWlLk6GJQsqaUBKTNV-0" />
        <mxCell id="qAE_ZPqJ58hg9dH11aiq-45" style="edgeStyle=orthogonalEdgeStyle;rounded=0;orthogonalLoop=1;jettySize=auto;html=1;" edge="1" parent="WIyWlLk6GJQsqaUBKTNV-1" source="ptOJJW3tQVXweDrJBPHO-7">
          <mxGeometry relative="1" as="geometry">
            <mxPoint x="640" y="370" as="targetPoint" />
          </mxGeometry>
        </mxCell>
        <mxCell id="ptOJJW3tQVXweDrJBPHO-7" value="Dws09_DwsTradeSkuOrderWindow_Cache" style="shape=process;backgroundOutline=1;html=1;whiteSpace=wrap;" parent="WIyWlLk6GJQsqaUBKTNV-1" vertex="1">
          <mxGeometry x="190" y="335" width="300" height="70" as="geometry" />
        </mxCell>
        <mxCell id="ptOJJW3tQVXweDrJBPHO-9" value="" style="edgeStyle=orthogonalEdgeStyle;rounded=0;orthogonalLoop=1;jettySize=auto;html=1;" parent="WIyWlLk6GJQsqaUBKTNV-1" source="ptOJJW3tQVXweDrJBPHO-8" target="ptOJJW3tQVXweDrJBPHO-7" edge="1">
          <mxGeometry relative="1" as="geometry" />
        </mxCell>
        <mxCell id="qAE_ZPqJ58hg9dH11aiq-5" style="edgeStyle=orthogonalEdgeStyle;rounded=0;orthogonalLoop=1;jettySize=auto;html=1;entryX=0;entryY=0.5;entryDx=0;entryDy=0;" edge="1" parent="WIyWlLk6GJQsqaUBKTNV-1" source="ptOJJW3tQVXweDrJBPHO-8" target="qAE_ZPqJ58hg9dH11aiq-4">
          <mxGeometry relative="1" as="geometry" />
        </mxCell>
        <mxCell id="ptOJJW3tQVXweDrJBPHO-8" value="dwd_trade_order_detail" style="ellipse;html=1;whiteSpace=wrap;" parent="WIyWlLk6GJQsqaUBKTNV-1" vertex="1">
          <mxGeometry x="-60" y="335" width="140" height="70" as="geometry" />
        </mxCell>
        <mxCell id="qAE_ZPqJ58hg9dH11aiq-1" style="edgeStyle=orthogonalEdgeStyle;rounded=0;orthogonalLoop=1;jettySize=auto;html=1;" edge="1" parent="WIyWlLk6GJQsqaUBKTNV-1" source="qAE_ZPqJ58hg9dH11aiq-0" target="ptOJJW3tQVXweDrJBPHO-8">
          <mxGeometry relative="1" as="geometry" />
        </mxCell>
        <mxCell id="qAE_ZPqJ58hg9dH11aiq-0" value="Dwd06_DwdTradeOrderDetail" style="shape=process;backgroundOutline=1;html=1;whiteSpace=wrap;" vertex="1" parent="WIyWlLk6GJQsqaUBKTNV-1">
          <mxGeometry x="-490" y="335" width="300" height="70" as="geometry" />
        </mxCell>
        <mxCell id="qAE_ZPqJ58hg9dH11aiq-3" style="edgeStyle=orthogonalEdgeStyle;rounded=0;orthogonalLoop=1;jettySize=auto;html=1;entryX=0;entryY=0.5;entryDx=0;entryDy=0;" edge="1" parent="WIyWlLk6GJQsqaUBKTNV-1" source="qAE_ZPqJ58hg9dH11aiq-2" target="qAE_ZPqJ58hg9dH11aiq-0">
          <mxGeometry relative="1" as="geometry" />
        </mxCell>
        <mxCell id="qAE_ZPqJ58hg9dH11aiq-2" value="&lt;div&gt;dwd_trade_order_&lt;/div&gt;&lt;div&gt;pre_process&lt;/div&gt;" style="ellipse;html=1;whiteSpace=wrap;" vertex="1" parent="WIyWlLk6GJQsqaUBKTNV-1">
          <mxGeometry x="-730" y="335" width="120" height="70" as="geometry" />
        </mxCell>
        <mxCell id="qAE_ZPqJ58hg9dH11aiq-9" style="edgeStyle=orthogonalEdgeStyle;rounded=0;orthogonalLoop=1;jettySize=auto;html=1;entryX=0;entryY=0.5;entryDx=0;entryDy=0;" edge="1" parent="WIyWlLk6GJQsqaUBKTNV-1" source="qAE_ZPqJ58hg9dH11aiq-4" target="qAE_ZPqJ58hg9dH11aiq-8">
          <mxGeometry relative="1" as="geometry" />
        </mxCell>
        <mxCell id="qAE_ZPqJ58hg9dH11aiq-4" value="&lt;div&gt;Dwd08_DwdTradePayDetailSuc&lt;/div&gt;" style="shape=process;backgroundOutline=1;html=1;whiteSpace=wrap;" vertex="1" parent="WIyWlLk6GJQsqaUBKTNV-1">
          <mxGeometry x="190" y="200" width="300" height="70" as="geometry" />
        </mxCell>
        <mxCell id="qAE_ZPqJ58hg9dH11aiq-7" style="edgeStyle=orthogonalEdgeStyle;rounded=0;orthogonalLoop=1;jettySize=auto;html=1;entryX=0;entryY=0.5;entryDx=0;entryDy=0;" edge="1" parent="WIyWlLk6GJQsqaUBKTNV-1" source="qAE_ZPqJ58hg9dH11aiq-6" target="qAE_ZPqJ58hg9dH11aiq-4">
          <mxGeometry relative="1" as="geometry" />
        </mxCell>
        <mxCell id="qAE_ZPqJ58hg9dH11aiq-12" style="edgeStyle=orthogonalEdgeStyle;rounded=0;orthogonalLoop=1;jettySize=auto;html=1;entryX=0;entryY=0.5;entryDx=0;entryDy=0;" edge="1" parent="WIyWlLk6GJQsqaUBKTNV-1" source="qAE_ZPqJ58hg9dH11aiq-6" target="qAE_ZPqJ58hg9dH11aiq-10">
          <mxGeometry relative="1" as="geometry" />
        </mxCell>
        <mxCell id="qAE_ZPqJ58hg9dH11aiq-6" value="&lt;div&gt;ods_db&lt;/div&gt;" style="ellipse;html=1;whiteSpace=wrap;" vertex="1" parent="WIyWlLk6GJQsqaUBKTNV-1">
          <mxGeometry x="-1330" y="200" width="140" height="70" as="geometry" />
        </mxCell>
        <mxCell id="qAE_ZPqJ58hg9dH11aiq-8" value="&lt;div&gt;dwd_trade_pay_detail_suc&lt;/div&gt;" style="ellipse;html=1;whiteSpace=wrap;" vertex="1" parent="WIyWlLk6GJQsqaUBKTNV-1">
          <mxGeometry x="640" y="200" width="140" height="70" as="geometry" />
        </mxCell>
        <mxCell id="qAE_ZPqJ58hg9dH11aiq-11" style="edgeStyle=orthogonalEdgeStyle;rounded=0;orthogonalLoop=1;jettySize=auto;html=1;entryX=0;entryY=0.5;entryDx=0;entryDy=0;" edge="1" parent="WIyWlLk6GJQsqaUBKTNV-1" source="qAE_ZPqJ58hg9dH11aiq-10" target="qAE_ZPqJ58hg9dH11aiq-2">
          <mxGeometry relative="1" as="geometry" />
        </mxCell>
        <mxCell id="qAE_ZPqJ58hg9dH11aiq-10" value="Dwd05_DwdTradeOrderPreProcess" style="shape=process;backgroundOutline=1;html=1;whiteSpace=wrap;" vertex="1" parent="WIyWlLk6GJQsqaUBKTNV-1">
          <mxGeometry x="-1130" y="335" width="300" height="70" as="geometry" />
        </mxCell>
        <mxCell id="qAE_ZPqJ58hg9dH11aiq-14" style="edgeStyle=orthogonalEdgeStyle;rounded=0;orthogonalLoop=1;jettySize=auto;html=1;entryX=0;entryY=0.5;entryDx=0;entryDy=0;" edge="1" parent="WIyWlLk6GJQsqaUBKTNV-1" source="qAE_ZPqJ58hg9dH11aiq-13" target="qAE_ZPqJ58hg9dH11aiq-10">
          <mxGeometry relative="1" as="geometry" />
        </mxCell>
        <mxCell id="qAE_ZPqJ58hg9dH11aiq-13" value="mysql:&lt;div&gt;gmall2022.base_dic&lt;/div&gt;" style="shape=internalStorage;whiteSpace=wrap;html=1;dx=15;dy=15;rounded=1;arcSize=8;strokeWidth=2;" vertex="1" parent="WIyWlLk6GJQsqaUBKTNV-1">
          <mxGeometry x="-1330" y="405" width="140" height="70" as="geometry" />
        </mxCell>
        <mxCell id="qAE_ZPqJ58hg9dH11aiq-17" style="edgeStyle=orthogonalEdgeStyle;rounded=0;orthogonalLoop=1;jettySize=auto;html=1;entryX=0;entryY=0.5;entryDx=0;entryDy=0;entryPerimeter=0;" edge="1" parent="WIyWlLk6GJQsqaUBKTNV-1" source="qAE_ZPqJ58hg9dH11aiq-16" target="qAE_ZPqJ58hg9dH11aiq-36">
          <mxGeometry relative="1" as="geometry" />
        </mxCell>
        <mxCell id="qAE_ZPqJ58hg9dH11aiq-33" value="Text" style="edgeLabel;html=1;align=center;verticalAlign=middle;resizable=0;points=[];" vertex="1" connectable="0" parent="qAE_ZPqJ58hg9dH11aiq-17">
          <mxGeometry x="0.019" y="3" relative="1" as="geometry">
            <mxPoint as="offset" />
          </mxGeometry>
        </mxCell>
        <mxCell id="qAE_ZPqJ58hg9dH11aiq-34" value="writeToPhoenix" style="edgeLabel;html=1;align=center;verticalAlign=middle;resizable=0;points=[];" vertex="1" connectable="0" parent="qAE_ZPqJ58hg9dH11aiq-17">
          <mxGeometry x="0.0619" y="6" relative="1" as="geometry">
            <mxPoint as="offset" />
          </mxGeometry>
        </mxCell>
        <mxCell id="qAE_ZPqJ58hg9dH11aiq-16" value="Ods2Dim" style="shape=process;backgroundOutline=1;html=1;whiteSpace=wrap;" vertex="1" parent="WIyWlLk6GJQsqaUBKTNV-1">
          <mxGeometry x="-380" y="540" width="300" height="70" as="geometry" />
        </mxCell>
        <mxCell id="qAE_ZPqJ58hg9dH11aiq-20" style="edgeStyle=orthogonalEdgeStyle;rounded=0;orthogonalLoop=1;jettySize=auto;html=1;entryX=0;entryY=0.5;entryDx=0;entryDy=0;" edge="1" parent="WIyWlLk6GJQsqaUBKTNV-1" source="qAE_ZPqJ58hg9dH11aiq-19" target="qAE_ZPqJ58hg9dH11aiq-16">
          <mxGeometry relative="1" as="geometry" />
        </mxCell>
        <mxCell id="qAE_ZPqJ58hg9dH11aiq-19" value="&lt;div&gt;ods_db&lt;/div&gt;" style="ellipse;html=1;whiteSpace=wrap;" vertex="1" parent="WIyWlLk6GJQsqaUBKTNV-1">
          <mxGeometry x="-1329" y="540" width="140" height="70" as="geometry" />
        </mxCell>
        <mxCell id="qAE_ZPqJ58hg9dH11aiq-23" style="edgeStyle=orthogonalEdgeStyle;rounded=0;orthogonalLoop=1;jettySize=auto;html=1;entryX=0;entryY=0.5;entryDx=0;entryDy=0;" edge="1" parent="WIyWlLk6GJQsqaUBKTNV-1" source="qAE_ZPqJ58hg9dH11aiq-21" target="qAE_ZPqJ58hg9dH11aiq-22">
          <mxGeometry relative="1" as="geometry" />
        </mxCell>
        <mxCell id="qAE_ZPqJ58hg9dH11aiq-21" value="gmall-xxx.jar mock_db" style="shape=process;backgroundOutline=1;html=1;whiteSpace=wrap;" vertex="1" parent="WIyWlLk6GJQsqaUBKTNV-1">
          <mxGeometry x="-1950" y="405" width="110" height="70" as="geometry" />
        </mxCell>
        <mxCell id="qAE_ZPqJ58hg9dH11aiq-26" style="edgeStyle=orthogonalEdgeStyle;rounded=0;orthogonalLoop=1;jettySize=auto;html=1;" edge="1" parent="WIyWlLk6GJQsqaUBKTNV-1" source="qAE_ZPqJ58hg9dH11aiq-22" target="qAE_ZPqJ58hg9dH11aiq-24">
          <mxGeometry relative="1" as="geometry" />
        </mxCell>
        <mxCell id="qAE_ZPqJ58hg9dH11aiq-27" value="binlog" style="edgeLabel;html=1;align=center;verticalAlign=middle;resizable=0;points=[];" vertex="1" connectable="0" parent="qAE_ZPqJ58hg9dH11aiq-26">
          <mxGeometry x="0.05" relative="1" as="geometry">
            <mxPoint as="offset" />
          </mxGeometry>
        </mxCell>
        <mxCell id="qAE_ZPqJ58hg9dH11aiq-22" value="mysql&lt;div&gt;gmall2022.*&lt;/div&gt;" style="shape=internalStorage;whiteSpace=wrap;html=1;dx=15;dy=15;rounded=1;arcSize=8;strokeWidth=2;" vertex="1" parent="WIyWlLk6GJQsqaUBKTNV-1">
          <mxGeometry x="-1720" y="405" width="130" height="70" as="geometry" />
        </mxCell>
        <mxCell id="qAE_ZPqJ58hg9dH11aiq-28" style="edgeStyle=orthogonalEdgeStyle;rounded=0;orthogonalLoop=1;jettySize=auto;html=1;entryX=0;entryY=0.5;entryDx=0;entryDy=0;" edge="1" parent="WIyWlLk6GJQsqaUBKTNV-1" source="qAE_ZPqJ58hg9dH11aiq-24" target="qAE_ZPqJ58hg9dH11aiq-6">
          <mxGeometry relative="1" as="geometry" />
        </mxCell>
        <mxCell id="qAE_ZPqJ58hg9dH11aiq-29" style="edgeStyle=orthogonalEdgeStyle;rounded=0;orthogonalLoop=1;jettySize=auto;html=1;entryX=0;entryY=0.5;entryDx=0;entryDy=0;" edge="1" parent="WIyWlLk6GJQsqaUBKTNV-1" source="qAE_ZPqJ58hg9dH11aiq-24" target="qAE_ZPqJ58hg9dH11aiq-19">
          <mxGeometry relative="1" as="geometry" />
        </mxCell>
        <mxCell id="qAE_ZPqJ58hg9dH11aiq-24" value="maxwell" style="shape=process;whiteSpace=wrap;html=1;backgroundOutline=1;" vertex="1" parent="WIyWlLk6GJQsqaUBKTNV-1">
          <mxGeometry x="-1510" y="312.5" width="100" height="255" as="geometry" />
        </mxCell>
        <mxCell id="qAE_ZPqJ58hg9dH11aiq-31" style="edgeStyle=orthogonalEdgeStyle;rounded=0;orthogonalLoop=1;jettySize=auto;html=1;entryX=0;entryY=0.5;entryDx=0;entryDy=0;" edge="1" parent="WIyWlLk6GJQsqaUBKTNV-1" source="qAE_ZPqJ58hg9dH11aiq-30" target="qAE_ZPqJ58hg9dH11aiq-16">
          <mxGeometry relative="1" as="geometry" />
        </mxCell>
        <mxCell id="qAE_ZPqJ58hg9dH11aiq-32" value="readTableProcess" style="edgeLabel;html=1;align=center;verticalAlign=middle;resizable=0;points=[];" vertex="1" connectable="0" parent="qAE_ZPqJ58hg9dH11aiq-31">
          <mxGeometry x="-0.0111" y="-1" relative="1" as="geometry">
            <mxPoint as="offset" />
          </mxGeometry>
        </mxCell>
        <mxCell id="qAE_ZPqJ58hg9dH11aiq-30" value="mysql:&lt;div&gt;gmall_config.table_process&lt;/div&gt;" style="shape=internalStorage;whiteSpace=wrap;html=1;dx=15;dy=15;rounded=1;arcSize=8;strokeWidth=2;" vertex="1" parent="WIyWlLk6GJQsqaUBKTNV-1">
          <mxGeometry x="-710" y="640" width="190" height="70" as="geometry" />
        </mxCell>
        <mxCell id="qAE_ZPqJ58hg9dH11aiq-35" value="DruidDataSource" style="shape=document;whiteSpace=wrap;html=1;boundedLbl=1;" vertex="1" parent="WIyWlLk6GJQsqaUBKTNV-1">
          <mxGeometry x="40" y="575" width="90" height="40" as="geometry" />
        </mxCell>
        <mxCell id="qAE_ZPqJ58hg9dH11aiq-43" style="edgeStyle=orthogonalEdgeStyle;rounded=0;orthogonalLoop=1;jettySize=auto;html=1;entryX=0.5;entryY=1;entryDx=0;entryDy=0;" edge="1" parent="WIyWlLk6GJQsqaUBKTNV-1" source="qAE_ZPqJ58hg9dH11aiq-36" target="ptOJJW3tQVXweDrJBPHO-7">
          <mxGeometry relative="1" as="geometry" />
        </mxCell>
        <mxCell id="qAE_ZPqJ58hg9dH11aiq-44" value="addDim" style="edgeLabel;html=1;align=center;verticalAlign=middle;resizable=0;points=[];" vertex="1" connectable="0" parent="qAE_ZPqJ58hg9dH11aiq-43">
          <mxGeometry x="-0.0704" y="-3" relative="1" as="geometry">
            <mxPoint as="offset" />
          </mxGeometry>
        </mxCell>
        <mxCell id="qAE_ZPqJ58hg9dH11aiq-36" value="HBase+Phoneix&lt;div&gt;dim_*&lt;/div&gt;" style="shape=cylinder3;whiteSpace=wrap;html=1;boundedLbl=1;backgroundOutline=1;size=15;" vertex="1" parent="WIyWlLk6GJQsqaUBKTNV-1">
          <mxGeometry x="220" y="535" width="140" height="80" as="geometry" />
        </mxCell>
        <mxCell id="qAE_ZPqJ58hg9dH11aiq-37" value="HDFS" style="shape=internalStorage;whiteSpace=wrap;html=1;backgroundOutline=1;" vertex="1" parent="WIyWlLk6GJQsqaUBKTNV-1">
          <mxGeometry x="120" y="680" width="130" height="80" as="geometry" />
        </mxCell>
        <mxCell id="qAE_ZPqJ58hg9dH11aiq-38" value="Zookeeper" style="shape=internalStorage;whiteSpace=wrap;html=1;backgroundOutline=1;" vertex="1" parent="WIyWlLk6GJQsqaUBKTNV-1">
          <mxGeometry x="300" y="680" width="130" height="80" as="geometry" />
        </mxCell>
        <mxCell id="qAE_ZPqJ58hg9dH11aiq-40" style="edgeStyle=orthogonalEdgeStyle;rounded=0;orthogonalLoop=1;jettySize=auto;html=1;entryX=0.5;entryY=1;entryDx=0;entryDy=0;entryPerimeter=0;" edge="1" parent="WIyWlLk6GJQsqaUBKTNV-1" source="qAE_ZPqJ58hg9dH11aiq-37" target="qAE_ZPqJ58hg9dH11aiq-36">
          <mxGeometry relative="1" as="geometry" />
        </mxCell>
        <mxCell id="qAE_ZPqJ58hg9dH11aiq-42" style="edgeStyle=orthogonalEdgeStyle;rounded=0;orthogonalLoop=1;jettySize=auto;html=1;entryX=0.5;entryY=1;entryDx=0;entryDy=0;entryPerimeter=0;" edge="1" parent="WIyWlLk6GJQsqaUBKTNV-1" source="qAE_ZPqJ58hg9dH11aiq-38" target="qAE_ZPqJ58hg9dH11aiq-36">
          <mxGeometry relative="1" as="geometry" />
        </mxCell>
      </root>
    </mxGraphModel>
  </diagram>
</mxfile>
